<svg width="18" height="23" viewBox="0 0 18 23" fill="none" xmlns="http://www.w3.org/2000/svg">
<path fill-rule="evenodd" clip-rule="evenodd" d="M7.84998 0C4.45442 0 1.82724 2.97603 2.24841 6.34536L2.32776 6.98021C2.44388 7.90916 2.10455 8.83706 1.41654 9.47195C-0.00913656 10.7875 -0.405232 12.8815 0.441418 14.6269L0.544769 14.84C1.33394 16.4669 2.98324 17.5 4.79147 17.5H13.0123C14.572 17.5 16.0236 16.7032 16.8611 15.3873C18.0432 13.5299 17.7301 11.0932 16.1168 9.59496L16.0729 9.5542C15.3344 8.86833 14.9708 7.86912 15.0958 6.86901L15.1604 6.35208C15.582 2.97918 12.952 0 9.55289 0H7.84998ZM3.73682 6.15931C3.42757 3.68526 5.35667 1.5 7.84998 1.5H9.55289C12.0498 1.5 13.9817 3.68841 13.672 6.16603L13.6074 6.68296C13.4225 8.16174 13.9602 9.63919 15.0522 10.6533L15.0961 10.6941C16.1789 11.6997 16.3891 13.3352 15.5956 14.582C15.0335 15.4652 14.0592 16 13.0123 16H4.79147C3.5579 16 2.43275 15.2952 1.89438 14.1853L1.79102 13.9723C1.23294 12.8218 1.49404 11.4415 2.43379 10.5743C3.47755 9.61114 3.99234 8.20345 3.81618 6.79416L3.73682 6.15931Z" fill="#9DB2CE"/>
<path d="M6.53339 19.3C6.28486 18.9686 5.81476 18.9015 5.48339 19.15C5.15202 19.3985 5.08487 19.8686 5.33339 20.2L5.63339 20.6C7.28339 22.8 10.5834 22.8 12.2334 20.6L12.5334 20.2C12.7819 19.8686 12.7148 19.3985 12.3834 19.15C12.052 18.9015 11.5819 18.9686 11.3334 19.3L11.0334 19.7C9.98339 21.1 7.88339 21.1 6.83339 19.7L6.53339 19.3Z" fill="#9DB2CE"/>
</svg>
